<svg xmlns="http://www.w3.org/2000/svg" width="1.2835in" height="1.2209in" viewBox="0 0 92.4109 87.9076"><defs><style>.a{fill:#173f54;}</style></defs><title>Artboard 2</title><path class="a" d="M71.3967,55.3864l.0027-.2568c-.0027-.43-.0241-.8725-.0635-1.3119l-.0278-.26c-.0528-.5075-.1163-.9513-.1933-1.3585-.085-.4259-.19-.8545-.3284-1.3458l-.0734-.2542c-.1244-.4152-.2711-.8349-.4349-1.2465l-.0724-.1727c-.1674-.4054-.3249-.7508-.4949-1.0873l-.0644-.1351c-.0242-.0528-.0385-.0823-.0529-.11-.1118-.2094-.2245-.4036-.3364-.5951-.1244-.2147-.2541-.4223-.3884-.6317l-.1485-.2318c-.2506-.3731-.5226-.7436-.809-1.098l-.1754-.2112c-.3624-.434-.6738-.7785-.98-1.0855L55.2874,32.622a2.666,2.666,0,0,0-3.7665.0009l-1.9847,1.9848L62.8857,47.8624a10.15,10.15,0,0,1,.8546.979c.0519.0671.1038.136.153.2067l.0662.09c.1852.2577.3625.5289.5271.809l.0421.068c.0438.0725.0885.1467.1288.221a10.6418,10.6418,0,0,1,.5056,1.0622l.09.239c.1163.306.2094.6254.2693.8384l.0456.1432c.0385.1431.0663.26.0932.3794.0438.1915.076.3848.1073.5826l.0278.1593c.0044.02.0107.059.0179.0993l.0277.1754a.2011.2011,0,0,1,.0009.0519,10.5662,10.5662,0,0,1,.0286,2.2139,10.4455,10.4455,0,0,1-.48,2.3132L65.36,58.59a10.3822,10.3822,0,0,1-.9289,1.9946c-.051.0859-.1047.1709-.1584.255a10.2133,10.2133,0,0,1-1.3933,1.7647,10.3214,10.3214,0,0,1-1.9669,1.5409,1.7239,1.7239,0,0,1-.2362.1119.7944.7944,0,0,0-.0993.0429,10.0233,10.0233,0,0,1-1.9661.8806,2.6921,2.6921,0,0,0-1.8783,2.5387,11.1346,11.1346,0,0,0,.5047,3.3c.4949-.0627.9933-.1718,1.4765-.2775l.18-.0384c.12-.0269.2416-.0448.3642-.0626a3.4606,3.4606,0,0,0,.3767-.07,15.6567,15.6567,0,0,0,1.94-.7016c.1119-.0456.2246-.0832.3365-.12a3.3462,3.3462,0,0,0,.32-.118,15.2777,15.2777,0,0,0,6.0072-4.8968c.0707-.0948.1333-.1924.1959-.289.0644-.1011.1136-.1772.1647-.2532a15.2751,15.2751,0,0,0,.8322-1.3406c.1154-.2111.2175-.4259.3194-.6425l.0556-.1127c.2192-.4627.3982-.8814.5467-1.28.1038-.2766.1986-.554.2863-.835.03-.0912.0618-.1807.0949-.2693.0349-.0913.0689-.1861.0958-.2819.0787-.2873.15-.5763.2129-.868.0144-.07.026-.1423.0385-.2165l.1137-.6533a1.14,1.14,0,0,1,.05-.1861c.0286-.22.06-.4779.085-.7392.0224-.2479.03-.5092.0384-.7723l.0064-.1646a.2189.2189,0,0,1,.008-.0492.1609.1609,0,0,1-.0036-.0466l.0081-.1682C71.3922,55.5054,71.3958,55.4491,71.3967,55.3864ZM78.1851,12.885A46.1913,46.1913,0,1,0,25.4885,87.4932a3.579,3.579,0,0,0,2.119.3544,20.2835,20.2835,0,0,0,16.77-15.7792c.0152-.0751.0348-.153.0563-.2291.0233-.0921.0323-.1235.0376-.1566.0287-.1431.0483-.2845.0681-.4268l.0545-.3893c.0152-.0948.0278-.1771.0376-.26l.04-.2666c.0277-.1763.0474-.2989.0608-.4233l.0108-.1011c.0125-.111.0232-.2157.0313-.3213.0116-.1172.0152-.2237.0179-.3284l.02-.4233c.0135-.2156.0242-.4188.03-.6165q.0079-.4095,0-.8188a20.1545,20.1545,0,0,0-1.0729-6.1209l-.07-.21c-.08-.2389-.1593-.476-.2515-.7132-.0751-.1915-.161-.3829-.247-.578l-.1262-.2783a20.238,20.238,0,0,0-3.6662-5.5357l-.851-.8438a.8548.8548,0,0,1-.2318-.2569l-8.7938-8.7759c-.221-.221-.4394-.4626-.6684-.7382L28.6653,43c-.1334-.1737-.2649-.3508-.3866-.5271-.0438-.0662-.0823-.1244-.119-.1844l-.0788-.1234c-.1127-.1826-.2129-.3526-.3087-.5226-.0662-.1226-.1226-.23-.1772-.3383-.0921-.1852-.1745-.3651-.2532-.545l-.1333-.3159c-.0832-.2138-.1495-.4134-.2157-.612l-.0314-.103c-.02-.0554-.0447-.1261-.0644-.1959-.0984-.35-.1691-.6416-.2237-.92a1.8,1.8,0,0,1-.0286-.1817l-.0188-.1315a10.379,10.379,0,0,1-.1387-1.59,9.5124,9.5124,0,0,1,.2273-2.2327,10.5071,10.5071,0,0,1,1.8505-4.1155,10.4,10.4,0,0,1,8.3375-4.1637,9.6678,9.6678,0,0,1,1.2161.0787l3.524-3.5249c.3159-.3177.6523-.6272,1.0219-.9413a16.0082,16.0082,0,0,0-8.9522-.78A14.2265,14.2265,0,0,0,30.0657,22.24a15.9582,15.9582,0,0,0-8.9736,15.9446c.02.2.051.3964.0832.5951l.0438.2747c.0448.3007.09.5861.1513.8743l.0179.1289c.0662.3105.1584.6738.2649,1.0371l.076.2318c.1119.36.24.7248.38,1.0863.05.1324.1012.255.1531.38.1351.3221.2863.6487.4483.9709l.1575.3167.008.0189c.0492.0939.1056.1888.1611.2836l.13.2264c.1316.2237.2614.4457.4027.6622l.196.2864c.2273.3293.45.6318.6613.8984l.2658.3392c.3481.4143.6667.7651.9709,1.07l9.3075,9.3057a.9167.9167,0,0,1,.1951.1521c.0876.09.1744.1871.2613.2828l.1959.221A14.7516,14.7516,0,0,1,38.14,61.7328c.1145.26.2174.5208.315.7875l.0259.0671c.11.298.2166.5888.3025.8832.0259.0868.0492.1781.0689.272l.0331.1343c.0475.1736.0958.3606.1387.553a14.7532,14.7532,0,0,1-.3579,7.89c-.1226.3857-.2363.7034-.3562,1-.1459.3571-.3123.6971-.46.9978A14.8614,14.8614,0,0,1,27.3919,82.337l-.0868.0143a.9672.9672,0,0,1-.6962-.094,41.0492,41.0492,0,1,1,39.3828-.1136l-.1735.1038a.6957.6957,0,0,1-.2855.08.7869.7869,0,0,1-.3535.0241A14.8682,14.8682,0,0,1,54.6583,74.328c-.1226-.2452-.3033-.6166-.4617-1.0014-.1155-.2837-.2291-.6014-.358-1.0031a14.75,14.75,0,0,1-.3624-7.8837c.0519-.2318.1119-.4654.1754-.6972l.0188-.08c.0179-.0779.0322-.1342.0483-.187.09-.3088.2041-.6166.3213-.9307.1243-.3391.2577-.6631.4062-.9888a14.8263,14.8263,0,0,1,3.0247-4.3785.84.84,0,0,1,.0913-.12l4.2049-4.2068a6.4747,6.4747,0,0,0-.4-.8734l-.0474-.0787a7.2868,7.2868,0,0,0-.4018-.6184l-.128-.1763a6.8656,6.8656,0,0,0-.5333-.6094l-1.9347-1.9338-4.7186,4.7446a21.4491,21.4491,0,0,0-4.2086,6.1423c-.1288.289-.2514.58-.3668.8752-.1182.3015-.2247.6076-.3267.9145a19.6378,19.6378,0,0,0-.587,2.111,20.62,20.62,0,0,0-.4617,3.96l.0053.1235c.0027.0975.0045.19.0045.2854,0,.094-.0018.1853-.0045.2783l-.0053.1709c.0035.0859.01.2121.0169.3419l.03.5888c.008.2076.0125.32.0224.434l.0295.3517c.0152.1423.0393.2908.0635.4376l.077.4975c.0161.11.03.2183.0447.3257.0314.2434.0528.409.0859.571.01.0474.0233.0993.0367.1476l.0161.06c.0179.07.03.119.0412.1691A20.0761,20.0761,0,0,0,64.9949,87.8779a2.9543,2.9543,0,0,0,1.7477-.2953A46.1631,46.1631,0,0,0,78.1851,12.885Zm-22.67,7.84a15.7339,15.7339,0,0,0-7.141,1.7011c-.2649.1333-.536.2828-.8313.4582l-.1817.1038c-.2148.1226-.4259.2452-.6291.38a15.9484,15.9484,0,0,0-2.4492,2.0063l-.3624.3615a.2181.2181,0,0,1-.05.0358L32.881,36.725a2.6708,2.6708,0,0,0,0,3.7682l1.9848,1.984L48.1446,29.2484a10.3767,10.3767,0,0,1,3.4309-2.281,9.53,9.53,0,0,1,1.0739-.3651,9.3421,9.3421,0,0,1,1.1695-.2568,10.1312,10.1312,0,0,1,1.6958-.1485,10.35,10.35,0,0,1,7.371,3.0541,10.4964,10.4964,0,0,1,2.97,8.5808l3.5311,3.5312c.2891.2872.5969.62.9352,1.0129a16.0717,16.0717,0,0,0-3.5651-16.9943A15.79,15.79,0,0,0,55.5147,20.7249ZM23.0124,50.4718c-.29-.2872-.5914-.6129-.9154-.9905a16.0757,16.0757,0,0,0,3.5642,16.9942,15.8984,15.8984,0,0,0,9.5124,4.5451,11.1305,11.1305,0,0,0,.5047-3.303A2.6905,2.6905,0,0,0,33.8,65.1807a10.386,10.386,0,0,1-4.2685-2.5763,10.5012,10.5012,0,0,1-2.9709-8.5791Z"/></svg>